<svg height="18" viewBox="0 0 18 18" width="18" xmlns="http://www.w3.org/2000/svg"><g fill="#39b4e7"><path d="m9 17c4.418278 0 8-3.581722 8-8s-3.581722-8-8-8-8 3.581722-8 8 3.581722 8 8 8zm0 1c-4.97056275 0-9-4.0294373-9-9 0-4.97056275 4.02943725-9 9-9 4.9705627 0 9 4.02943725 9 9 0 4.9705627-4.0294373 9-9 9z"/><path d="m10.4267767 3.28033009c0-.27614238.2238576-.5.5-.5s.5.22385762.5.5v8.83883481c0 .2761423-.2238576.5-.5.5h-4.45405846c-.27614237 0-.5-.2238577-.5-.5 0-.2761424.22385763-.5.5-.5h3.95405846z" transform="matrix(.70710678 .70710678 -.70710678 .70710678 7.99264 -3.896446)"/></g></svg>