<svg xmlns="http://www.w3.org/2000/svg" width="25" height="25" viewBox="0 0 25 25">
    <path fill="#FFF" fill-rule="evenodd" d="M12.5 0c3.395 0 3.82.014 5.154.075 1.33.06 2.239.272 3.034.581.822.32 1.52.747 2.214 1.442a6.128 6.128 0 0 1 1.442 2.214c.309.795.52 1.704.58 3.034.062 1.334.076 1.76.076 5.154 0 3.395-.014 3.82-.075 5.154-.06 1.33-.272 2.239-.581 3.034a6.128 6.128 0 0 1-1.442 2.214 6.128 6.128 0 0 1-2.214 1.442c-.795.309-1.704.52-3.034.58-1.334.062-1.76.076-5.154.076-3.395 0-3.82-.014-5.154-.075-1.33-.06-2.239-.272-3.034-.581a6.128 6.128 0 0 1-2.214-1.442 6.127 6.127 0 0 1-1.442-2.214c-.309-.795-.52-1.704-.58-3.034C.013 16.32 0 15.894 0 12.5c0-3.395.014-3.82.075-5.154.06-1.33.272-2.239.581-3.034.32-.822.747-1.52 1.442-2.214A6.127 6.127 0 0 1 4.312.656c.795-.309 1.704-.52 3.034-.58C8.68.013 9.106 0 12.5 0zm-.252 2c-3.338 0-3.733.013-5.051.073-1.22.055-1.88.26-2.321.43-.584.227-1 .498-1.438.935a3.872 3.872 0 0 0-.935 1.438c-.17.44-.375 1.102-.43 2.32C2.013 8.516 2 8.91 2 12.249c0 3.337.013 3.733.073 5.05.055 1.22.26 1.881.43 2.322.227.583.498 1 .935 1.437.438.438.854.708 1.438.935.44.171 1.102.375 2.32.43 1.319.06 1.714.074 5.052.074 3.338 0 3.733-.013 5.05-.073 1.22-.056 1.881-.26 2.322-.43.583-.228 1-.498 1.437-.936.438-.437.708-.854.935-1.437.171-.44.375-1.102.43-2.321.06-1.318.074-1.714.074-5.051 0-3.338-.013-3.733-.073-5.051-.056-1.22-.26-1.88-.43-2.321-.228-.584-.498-1-.936-1.438a3.872 3.872 0 0 0-1.437-.935c-.44-.17-1.102-.375-2.321-.43C15.98 2.013 15.585 2 12.248 2zm.17 4a6.419 6.419 0 1 1 0 12.838 6.419 6.419 0 0 1 0-12.838zm-.251 10.333a4.167 4.167 0 1 0 0-8.333 4.167 4.167 0 0 0 0 8.333zM21 5.5a1.5 1.5 0 1 1-3 0 1.5 1.5 0 0 1 3 0z"/>
</svg>
