<svg viewBox="0 0 290.89 77.5" xmlns="http://www.w3.org/2000/svg"><g fill="#101010" transform="translate(-19.57 -12.84)"><path d="m307.46 12.94a3 3 0 1 1 -3 3 3 3 0 0 1 3-3zm0 5.6a2.43 2.43 0 0 0 2.41-2.43c0-.06 0-.11 0-.17a2.45 2.45 0 0 0 -4.9 0 2.63 2.63 0 0 0 2.49 2.6zm-1.1-4.3h1.31c.8 0 1.2.3 1.2 1a.84.84 0 0 1 -.78.9h-.09l1 1.5h-.6l-.9-1.5h-.6v1.5h-.5zm.5 1.5h.6c.5 0 .9 0 .9-.6s-.4-.5-.8-.5h-.7z"/><path d="m161.16 76.44h-.9v2.4h-.59v-2.4h-.9v-.5h2.3v.5zm2.2 1.6.8-2h.8v2.9h-.5v-2.2l-.9 2.2h-.4l-.9-2.2v2.2h-.5v-3h.8z"/><path d="m25.67 67.24h-6.1v-22.9c0-9.5 6.7-15.7 15.7-15.7s15.6 6.2 15.6 15.7v22.8h-6.1v-23c0-5.6-3.7-9.7-9.5-9.7s-9.6 4.1-9.6 9.7z"/><path d="m96.06 48.54c0 10.8-8.2 19.6-18.9 19.6s-18.9-8.8-18.9-19.6 8.2-19.9 18.9-19.9 18.9 8.9 18.9 19.9zm-6.3 0c0-7.7-5.7-13.9-12.7-13.9s-12.6 6.3-12.6 13.9 5.7 13.7 12.6 13.7c7.1-.1 12.7-6.24 12.7-13.7z"/><path d="m154.86 67.24h-6.19v-24.4c0-4.9-3.2-8.5-8.2-8.5s-8.2 3.6-8.2 8.5v24.3h-6.2v-24.3c0-4.9-3.2-8.5-8.2-8.5s-8.2 3.6-8.2 8.5v24.3h-6.2v-24c0-8.2 5.9-14.5 14.4-14.5 5.1 0 9.1 2.4 11.2 6.2a12.7 12.7 0 0 1 11.3-6.2c8.5 0 14.4 6.3 14.4 14.5v24.1z"/><path d="m200.06 67.24h-6v-5.8a16 16 0 0 1 -13 6.8c-10.4 0-18.8-8.5-18.8-19.7s8.5-19.8 18.9-19.8c10.7 0 18.8 8.7 18.8 19.8v18.7zm-18.9-32.9c-7 0-12.7 6.2-12.7 14.1s5.7 13.9 12.7 13.9 12.7-6.2 12.7-13.9-5.8-14.1-12.7-14.1z"/><path d="m245.26 48.24c0 11.2-8.2 19.8-18.8 19.8-10.4 0-18.9-8.5-18.9-19.8s8.4-19.6 18.8-19.6a16.49 16.49 0 0 1 13 6.4v-22.2h6v35.4zm-18.9-13.9c-7 0-12.7 6.1-12.7 13.9 0 8 5.7 14.1 12.7 14.1s12.7-6.3 12.7-14.1-5.7-13.9-12.7-13.9z"/><path d="m254.06 23.94v-4.7a3 3 0 0 1 3-3h.1a3 3 0 0 1 3.1 2.9v4.8zm6.2 43.3h-6.2v-37.6h6.2z"/><path d="m287.06 68c-10.4 0-18.8-8.8-18.8-19.6s8.5-19.8 18.8-19.8a17.93 17.93 0 0 1 17.5 12.6h-6.56a11.85 11.85 0 0 0 -10.9-6.6c-6.9 0-12.6 6.3-12.6 13.9s5.7 13.7 12.6 13.7a11.92 11.92 0 0 0 10.9-6.6h6.6a17.87 17.87 0 0 1 -17.54 12.4z"/><path d="m19.76 85v-9.2h1.3v6.4a4.4 4.4 0 0 1 4.1-2.3 5 5 0 0 1 5.1 4.89v.31a5.06 5.06 0 0 1 -4.93 5.2 2.28 2.28 0 0 1 -.37 0 5 5 0 0 1 -5.2-4.79 4.34 4.34 0 0 1 0-.51zm9.24 0a4 4 0 1 0 -4 4 3.83 3.83 0 0 0 4-3.65 2 2 0 0 0 0-.35z"/><path d="m34.26 90v-14.16h1.3v14.16z"/><path d="m48.36 80.14h1.31v5.2c0 3.3-2 5-4.9 5s-4.9-1.7-4.9-5v-5.2h1.3v5.2c0 2.4 1.4 3.7 3.5 3.7s3.5-1.3 3.5-3.7v-5.2z"/><path d="m60.67 84.24v-.1c0-2.1-1.1-3-2.8-3s-2.8.9-2.8 3v5.86h-1.3v-5.9a3.84 3.84 0 0 1 3.44-4.2 4.82 4.82 0 0 1 .76 0c2.5 0 4.1 1.4 4.1 4.2v.1z"/><path d="m80.36 86.34a3.85 3.85 0 0 1 -7.7 0v-9.7h1.34v3.5h5.8v1.2h-5.8v5a2.36 2.36 0 0 0 2 2.66 2.68 2.68 0 0 0 .49 0c1.5 0 2.5-.8 2.5-2.7v-.2h1.3v.2z"/><path d="m85.67 84.84v5.16h-1.3v-14.16h1.3v6.16a4 4 0 0 1 3.7-2.1c2.6 0 4.7 1.6 4.7 5v5.2h-1.3v-5.2c0-2.4-1.4-3.7-3.5-3.7a3.34 3.34 0 0 0 -3.6 3.64z"/><path d="m99.06 85.54a3.7 3.7 0 0 0 3.94 3.46 3.51 3.51 0 0 0 3.4-1.8h1.5a5.37 5.37 0 1 1 .4-2.2v.4h-9.2zm0-1.3h7.8a3.75 3.75 0 0 0 -3.86-3.24 3.81 3.81 0 0 0 -3.9 3.2z"/><path d="m119.46 90v-14.16h1.3v14.16z"/><path d="m125.16 77.44a1 1 0 1 1 1 1 1 1 0 0 1 -1-1zm.4 12.6v-9.9h1.3v9.86z"/><path d="m139.67 90v-5.2c0-2.4-1.4-3.7-3.5-3.7s-3.5 1.3-3.5 3.7v5.2h-1.5v-5.2c0-3.3 2-5 4.9-5s4.9 1.7 4.9 5v5.2z"/><path d="m145.86 85.54a3.7 3.7 0 0 0 3.89 3.5 3.51 3.51 0 0 0 3.4-1.8h1.51a5.37 5.37 0 1 1 .4-2.2v.4h-9.2zm.1-1.3h7.8a3.75 3.75 0 0 0 -3.9-3.2 3.81 3.81 0 0 0 -3.9 3.2z"/></g></svg>