<svg height="36" viewBox="0 0 55 36" width="55" xmlns="http://www.w3.org/2000/svg"><g fill-rule="evenodd"><path d="m2 30c0 2.209139 1.790861 4 4 4h43c2.209139 0 4-1.790861 4-4v-24c0-2.209139-1.790861-4-4-4h-43c-2.209139 0-4 1.790861-4 4v4.0618938c3.94631158.492098 7 3.8584885 7 7.9381062s-3.05368842 7.4460082-7 7.9381062zm-2-6.0829584c.32520847.0545596.65928779.0829584 1 .0829584 3.3137085 0 6-2.6862915 6-6s-2.6862915-6-6-6c-.34071221 0-.67479153.0283988-1 .0829584v-6.0829584c0-3.3137085 2.6862915-6 6-6h43c3.3137085 0 6 2.6862915 6 6v24c0 3.3137085-2.6862915 6-6 6h-43c-3.3137085 0-6-2.6862915-6-6z" fill-rule="nonzero"/><path d="m36.8607354 24.5491667c-.0102945-.0076263-.0205891-.0165599-.0308836-.024622.0102945.0084978.0205891.0165599.0308836.024622zm-16.8621251-14.3006292v-.0002179zm17.4358953 6.5759048c-.0674121-.955372-.2603999-2.657648-.4219423-4.116498-.0630961-.5699833-.1407844-1.1527559-.2211446-1.6937497-.0766607-.5160544-.1442783-1.0093009-.3239069-1.44499486-.1079005-.26197059-.2268993-.51669383-.4420837-.73816449-.0462431-.04774729-.0972132-.09400247-.1533215-.13833924-.0988574-.07822881-.2242274-.16285234-.3586406-.23084959-.215801-.1089235-.4591422-.17542864-.6457587-.1033814-.0238408.00937893-.0476817.02067628-.0661789.03176047-.0209636.01236314-.0382276.02493943-.0591912.04092624-.0232243.01747892-.050559.04454993-.0690563.06586568-.0209635.02429996-.0421325.05158412-.0532309.0667183.0010277-.00085263.0024663-.00127894.0036995-.00191842-.0024663.00255789-.0051381.00405-.0073989.00746052-.0158254.02323417-.041105.0637341-.0532309.08462353-.4870936.83664328-.731668 4.29640306-.731668 6.76199606 0 .6989435-.0063713 1.49125-.0156199 2.1831594-.0045215.3359362-.0098652.646933-.0154144.9131668-.1561987-.3570389-.3109589-.7136514-.4595532-1.0672797-.2801302-.6678225-.5411466-1.2520873-.8048348-1.9211888-.7415332-1.8823941-1.5527393-3.775446-2.4833553-5.69834001-.6225343-1.28619249-1.446894-2.79918459-2.0823764-3.4469703-.1198209-.1219261-.2396419-.22807854-.3596683-.31589944-.0162365-.01001841-.0355558-.01897102-.0575469-.02643154-.0156199-.00554209-.032884-.0100184-.0513812-.01428155-.2891733-.06437357-.8948546.02280785-1.4172985.14153659-.9838468.22338909-2.0443544.65140939-2.8997483 1.07921654-.6582957.32911521-1.2436301.70235404-1.791559 1.13314539-.3191799.2508864-.6254117.5213833-.9260944.81426173-.2474517.240868-.4909985.49687019-.7347509.76949866-.0150033.01683944-.0384331.04263153-.046243.05691303-.0012332.0019184-.004316.0031974-.0053437.005329-.0482983.0888867-.0365834.3638599-.025074.6428831.0065768.161147.0542586.6978777.1274254 1.3550423.1169435 1.0493745.2865014 2.4123037.3631621 3.0958999.1249591 1.1116165.5481345 5.1784488.5481345 6.5383938 0 1.3593055-.0150033 2.5890113-.3241125 3.4098809-.1913435-.31931-.3717942-.6477857-.5518339-.9739167-.2468352-.4474177-.3691224-.6313726-.4202981-.6985172-.0076044-.0100184-.0388441-.0556341-.0579579-.0756709-.0156199-.0153474-.054053-.0238737-.0733723-.0234474-.0205525.0004263-.0445989.0036237-.0637127.0083132-.025074.0051158-.0756331.0315473-.1134497.0637341-.0162364.0138552-.0304176.0285631-.0396662.0426315-.0090431.0136421-.0172641.0317604-.024663.0537157-.0030829.0091657-.0059602.0193973-.008632.0300552-.0176752.0718341-.0238409.1709523-.0055492.2768916.0049326.0317605.0108928.0643736.0176751.0978393.0063713.0315473.0137702.0637341.0217856.0967735.0359669.1468656.0883757.3075863.1547602.4744887.2192948.5533569.5898559 1.1744979 1.0189915 1.588663.3002716.2898942 1.005427 1.0156956 1.7122265 1.3614371.7511928.3674835 1.2179395.2817942 1.496631.1873654.1152994-.0432709.1734629-.0773761.2640993-.1362076.0135646-.0087395.0343226-.0249395.0466541-.0341052.0287734-.0219553.049737-.0407131.0694673-.058192.024663-.0215289.0472707-.0449763.0686453-.0667183.0489149-.0498789.1656529-.1990892.2108684-.2828601-.0014387.0021316-.003494.00405-.0049326.0061816.1015292-.1440945.1968927-.3393468.299244-.604941.1056397-.2736943.2096352-.6145332.3060263-1.0291246.0918695-.3939151.1767512-.8543353.2501236-1.3868028.0852927-.6187963.1492109-1.0792165.2010031-1.4814448.0402829-.3129152.0733724-.5908726.103379-.8807669.004316.0083132.008221.0164132.012537.0247263.5771134 1.1188638 1.2415748 2.3144644 1.9306992 3.4056177.9322602 1.4752633 1.9097357 2.7595373 2.7784887 3.4034862.3086982.2289312.8950602.5405675 1.1655307.5469622.012126 0 .024663-.0002132.0372-.0004263.1837391-.00405.3870031-.0368763.6073256-.0950683.2673876-.0709814.5594382-.1796918.8708082-.3205889.5343643-.2417206 1.1252479-.5780832 1.7451104-.9798851.8948547-.5802148 1.6885911-1.2599741 2.2681708-1.8574547.3076705-.3171784.5662206-.6155989.7363951-.8590248.0110984-.0155605.0215801-.031121.0318564-.0462552.0139756-.0204631.0271292-.0404999.0398717-.0601104 0-.0004263.0002056-.0004263.0004111-.0008526.0002055-.0002132.0002055-.0006395.000411-.0008526 0 0 .0002056 0 .0002056-.0002132.0209635-.033892.0542585-.0954946.083443-.1605076.0598077-.1340761.1146828-.2585601.1487999-.385602.1309193-.4868518.1103668-.9619799.1130386-1.514271.008221-1.7108023-.2891733-4.5605052-.3835091-5.894445z" transform="matrix(.5 .8660254 -.8660254 .5 29.35999 -15.852995)"/></g></svg>