<svg height="720" viewBox="0 0 720 720" width="720" xmlns="http://www.w3.org/2000/svg" xmlns:xlink="http://www.w3.org/1999/xlink"><linearGradient id="a" x1="53.072731%" x2="53.470459%" y1="99.497624%" y2="0%"><stop offset="0" stop-color="#f5754b"/><stop offset=".416668614" stop-color="#ea6c42"/><stop offset=".54474591" stop-color="#d65a32"/><stop offset="1" stop-color="#c6451c"/></linearGradient><filter id="b" height="280.8%" width="108.6%" x="-4.3%" y="-90.4%"><feGaussianBlur in="SourceGraphic" stdDeviation="3.97879464"/></filter><g fill="none"><path d="m0 0h720v720h-720zm405.516527 95.4706716c-9.384974 2.27798-58.012257 36.9273844-145.881846 103.9482144-77.603266 53.778154-122.979607 79.048808-136.129022 75.811962 1.46769-.841486 4.712161-7.174261 9.733413-18.998327 7.531879-17.736099 15.743709-26.339189 4.434768-25.216297-21.660552 2.150726-63.6460001 87.708971-30.18286 133.67553 12.178949 16.729582 41.297139 12.03742 86.102281-4.648764 10.21191-3.803086 28.305308-10.720205 54.280196-20.751357-28.779181 49.841589-47.162121 84.176001-55.148821 103.003237-23.336637 55.012001-23.03335 88.379221-16.739584 99.20463 6.956532 11.965381 27.233008 32.73252 65.376472 53.452395 38.143465 20.719876 74.157669 32.895007 101.545025 31.301957 27.387357-1.593049 238.677069-158.050788 261.408897-176.425149s30.324927-49.602715 13.102161-60.452229c-11.481843-7.23301-47.776329 5.476989-108.883456 38.129997l-98.18091 54.137929c51.922567-69.299102 86.444557-116.988014 103.565971-143.066738 47.111863-71.759101 64.196898-107.365929 63.562149-122.336595-.5739-13.535511-42.189284-58.687568-80.687365-83.699795-38.498081-25.012226-77.200007-40.4875704-91.277469-37.0706004z" fill="url(#a)"/><ellipse cx="351" cy="668.600846" fill="#742104" filter="url(#b)" opacity=".198661" rx="138" ry="6.600846"/></g></svg>
